<svg fill="#000000" xmlns="http://www.w3.org/2000/svg"  viewBox="0 0 64 64" width="64px" height="64px"><path d="M 19 12 C 8.523438 12 0 20.523438 0 31 C 0 41.476563 8.523438 50 19 50 C 24.027344 50 28.589844 48.023438 31.988281 44.828125 C 35.472656 48.089844 40.113281 50 45 50 C 55.476563 50 64 41.476563 64 31 C 64 20.523438 55.476563 12 45 12 C 40.101563 12 35.53125 13.84375 31.996094 17.179688 C 28.59375 13.980469 24.027344 12 19 12 Z M 19 14 C 28.375 14 36 21.625 36 31 C 36 35.164063 34.488281 38.976563 31.996094 41.9375 C 31.359375 41.179688 30.78125 40.375 30.277344 39.503906 C 30 39.027344 29.382813 38.859375 28.90625 39.140625 C 28.429688 39.414063 28.265625 40.027344 28.546875 40.503906 C 29.144531 41.539063 29.835938 42.5 30.605469 43.390625 C 27.5625 46.238281 23.488281 48 19 48 C 9.625 48 2 40.375 2 31 C 2 21.625 9.625 14 19 14 Z M 45 14 C 54.375 14 62 21.625 62 31 C 62 40.375 54.375 48 45 48 C 40.636719 48 36.492188 46.296875 33.375 43.386719 C 36.25 40.058594 38 35.734375 38 31 C 38 26.269531 36.25 21.949219 33.378906 18.621094 C 36.539063 15.644531 40.625 14 45 14 Z M 44.53125 17.011719 C 43.308594 17.050781 42.089844 17.25 40.917969 17.605469 C 40.390625 17.765625 40.09375 18.324219 40.25 18.855469 C 40.414063 19.382813 40.972656 19.679688 41.5 19.515625 C 44.175781 18.703125 47.136719 18.859375 49.714844 19.960938 C 49.84375 20.015625 49.976563 20.042969 50.109375 20.042969 C 50.496094 20.042969 50.863281 19.8125 51.027344 19.433594 C 51.242188 18.925781 51.007813 18.335938 50.5 18.121094 C 48.617188 17.316406 46.566406 16.945313 44.53125 17.011719 Z M 53.703125 20.386719 C 53.449219 20.398438 53.195313 20.507813 53.011719 20.714844 C 52.636719 21.121094 52.667969 21.753906 53.078125 22.125 C 53.589844 22.59375 54.066406 23.109375 54.488281 23.65625 C 54.6875 23.910156 54.980469 24.046875 55.28125 24.046875 C 55.496094 24.046875 55.710938 23.976563 55.890625 23.835938 C 56.328125 23.496094 56.410156 22.867188 56.074219 22.433594 C 55.578125 21.792969 55.019531 21.191406 54.421875 20.644531 C 54.21875 20.460938 53.957031 20.375 53.703125 20.386719 Z M 28.671875 20.503906 C 28.28125 20.457031 27.886719 20.640625 27.679688 21 C 27.402344 21.476563 27.570313 22.089844 28.046875 22.363281 L 29.777344 23.363281 C 29.933594 23.457031 30.105469 23.5 30.277344 23.5 C 30.621094 23.5 30.957031 23.320313 31.140625 23 C 31.417969 22.523438 31.257813 21.910156 30.777344 21.636719 L 29.046875 20.636719 C 28.925781 20.566406 28.800781 20.523438 28.671875 20.503906 Z M 26.511719 25.09375 C 26.125 25.144531 25.789063 25.421875 25.683594 25.824219 C 25.539063 26.355469 25.855469 26.90625 26.390625 27.046875 L 28.320313 27.566406 C 28.40625 27.589844 28.492188 27.601563 28.578125 27.601563 C 29.019531 27.601563 29.425781 27.304688 29.546875 26.859375 C 29.6875 26.328125 29.371094 25.777344 28.839844 25.636719 L 26.90625 25.113281 C 26.773438 25.078125 26.640625 25.074219 26.511719 25.09375 Z M 26 30 C 25.445313 30 25 30.449219 25 31 C 25 31.550781 25.445313 32 26 32 L 28 32 C 28.554688 32 29 31.550781 29 31 C 29 30.449219 28.554688 30 28 30 Z M 28.71875 34.40625 C 28.589844 34.390625 28.453125 34.398438 28.320313 34.433594 L 26.390625 34.953125 C 25.855469 35.09375 25.539063 35.644531 25.683594 36.175781 C 25.800781 36.625 26.203125 36.921875 26.644531 36.921875 C 26.734375 36.921875 26.820313 36.910156 26.90625 36.886719 L 28.839844 36.363281 C 29.371094 36.222656 29.6875 35.675781 29.546875 35.140625 C 29.4375 34.738281 29.101563 34.460938 28.71875 34.40625 Z"/></svg>